<mxfile host="Electron" modified="2023-07-23T16:32:50.665Z" agent="Mozilla/5.0 (X11; Linux x86_64) AppleWebKit/537.36 (KHTML, like Gecko) draw.io/21.6.5 Chrome/114.0.5735.243 Electron/25.3.1 Safari/537.36" etag="Sk6qQ_GLCHUViNlg5Ckh" version="21.6.5" type="device">
  <diagram name="Page-1" id="nXqlTPuEWZttkAlKJWpj">
    <mxGraphModel dx="777" dy="482" grid="1" gridSize="10" guides="1" tooltips="1" connect="1" arrows="1" fold="1" page="1" pageScale="1" pageWidth="850" pageHeight="1100" math="1" shadow="0">
      <root>
        <mxCell id="0" />
        <mxCell id="1" parent="0" />
        <mxCell id="XnjCDIcHjmMH2OgmWB8k-35" value="" style="rounded=1;whiteSpace=wrap;html=1;strokeColor=#000099;arcSize=10;" parent="1" vertex="1">
          <mxGeometry x="80" y="60" width="600" height="450" as="geometry" />
        </mxCell>
        <mxCell id="XnjCDIcHjmMH2OgmWB8k-37" value="&lt;font color=&quot;#000099&quot;&gt;Multi-Headed Self-Attention&lt;/font&gt;" style="rounded=1;whiteSpace=wrap;html=1;strokeColor=#000099;" parent="1" vertex="1">
          <mxGeometry x="250" y="70" width="240" height="30" as="geometry" />
        </mxCell>
        <mxCell id="XnjCDIcHjmMH2OgmWB8k-295" value="The computational graph of the operation and its details are shown below. The self-attention mechanism learns different mappings of the input embeddings to three different spaces that can be described as key, query, and value. The key and query spaces are used to learn similarity between different tokens. The similarity is computed as the scaled-dot product. The resulting similarities are then passed through a softmax layer for normalization. The normalized scores are subsequently used to compute a weight sum of the values. The resulting value represents the embedding dimension that the input tokens attend to.&lt;br&gt;&lt;br&gt;Transformers learns multiple values from a multi-headed self-attention mechanism. These values are concatenated and its weighted sum is computed by a linear layer.&amp;nbsp;&amp;nbsp;" style="text;html=1;strokeColor=none;fillColor=none;align=left;verticalAlign=middle;whiteSpace=wrap;rounded=0;" parent="1" vertex="1">
          <mxGeometry x="100" y="100" width="570" height="140" as="geometry" />
        </mxCell>
        <mxCell id="XnjCDIcHjmMH2OgmWB8k-306" value="&lt;font style=&quot;font-size: 10px;&quot;&gt;Key and value dimensions&lt;/font&gt;" style="text;html=1;align=left;verticalAlign=middle;resizable=0;points=[];autosize=1;strokeColor=none;fillColor=none;" parent="1" vertex="1">
          <mxGeometry x="190" y="439" width="140" height="30" as="geometry" />
        </mxCell>
        <mxCell id="XnjCDIcHjmMH2OgmWB8k-305" value="&lt;font style=&quot;font-size: 10px;&quot;&gt;Embedding dimension&lt;/font&gt;" style="text;html=1;align=left;verticalAlign=middle;resizable=0;points=[];autosize=1;strokeColor=none;fillColor=none;" parent="1" vertex="1">
          <mxGeometry x="190" y="400" width="120" height="30" as="geometry" />
        </mxCell>
        <mxCell id="XnjCDIcHjmMH2OgmWB8k-307" value="&lt;span style=&quot;font-size: 10px;&quot;&gt;Sentence length&lt;/span&gt;" style="text;html=1;align=left;verticalAlign=middle;resizable=0;points=[];autosize=1;strokeColor=none;fillColor=none;" parent="1" vertex="1">
          <mxGeometry x="190" y="420" width="100" height="30" as="geometry" />
        </mxCell>
        <mxCell id="XnjCDIcHjmMH2OgmWB8k-308" value="&lt;span style=&quot;font-size: 10px;&quot;&gt;Weight matrices of query, key, and value spaces&lt;/span&gt;" style="text;html=1;align=left;verticalAlign=middle;resizable=0;points=[];autosize=1;strokeColor=none;fillColor=none;" parent="1" vertex="1">
          <mxGeometry x="190" y="459" width="240" height="30" as="geometry" />
        </mxCell>
        <mxCell id="XnjCDIcHjmMH2OgmWB8k-309" value="&lt;span style=&quot;font-size: 10px;&quot;&gt;Weight matrix to project multi-headed output to the emebdding dimension&lt;/span&gt;" style="text;html=1;align=left;verticalAlign=middle;resizable=0;points=[];autosize=1;strokeColor=none;fillColor=none;" parent="1" vertex="1">
          <mxGeometry x="190" y="478" width="350" height="30" as="geometry" />
        </mxCell>
        <mxCell id="XnjCDIcHjmMH2OgmWB8k-264" value="" style="group" parent="1" vertex="1" connectable="0">
          <mxGeometry x="320" y="270" width="350" height="20" as="geometry" />
        </mxCell>
        <mxCell id="XnjCDIcHjmMH2OgmWB8k-227" value="&lt;font style=&quot;font-size: 10px;&quot; color=&quot;#000099&quot;&gt;Key&lt;/font&gt;" style="rounded=0;whiteSpace=wrap;html=1;fillColor=#dae8fc;strokeColor=none;fontColor=default;" parent="XnjCDIcHjmMH2OgmWB8k-264" vertex="1">
          <mxGeometry width="90.3225806451613" height="20" as="geometry" />
        </mxCell>
        <mxCell id="XnjCDIcHjmMH2OgmWB8k-230" value="&lt;font color=&quot;#000099&quot; style=&quot;font-size: 10px;&quot;&gt;$$K = W_i^k \cdot X$$&lt;/font&gt;" style="rounded=0;whiteSpace=wrap;html=1;fillColor=#A9C4EB;strokeColor=none;fontColor=default;" parent="XnjCDIcHjmMH2OgmWB8k-264" vertex="1">
          <mxGeometry x="236.76470588235298" width="113.23529411764707" height="20" as="geometry" />
        </mxCell>
        <mxCell id="XnjCDIcHjmMH2OgmWB8k-247" value="&lt;font style=&quot;font-size: 10px;&quot; color=&quot;#000099&quot;&gt;$$L \times d_{E}$$&lt;/font&gt;" style="rounded=0;whiteSpace=wrap;html=1;fillColor=#A9C4EB;strokeColor=none;fontColor=default;" parent="XnjCDIcHjmMH2OgmWB8k-264" vertex="1">
          <mxGeometry x="90.32058823529412" width="84.67941176470589" height="20" as="geometry" />
        </mxCell>
        <mxCell id="XnjCDIcHjmMH2OgmWB8k-249" value="&lt;font style=&quot;font-size: 10px;&quot; color=&quot;#000099&quot;&gt;$$L \times d_k$$&lt;/font&gt;" style="rounded=0;whiteSpace=wrap;html=1;fillColor=#D4E1F5;strokeColor=none;fontColor=default;" parent="XnjCDIcHjmMH2OgmWB8k-264" vertex="1">
          <mxGeometry x="175" width="61.76470588235295" height="20" as="geometry" />
        </mxCell>
        <mxCell id="XnjCDIcHjmMH2OgmWB8k-312" value="" style="group" parent="1" vertex="1" connectable="0">
          <mxGeometry x="320" y="250" width="350" height="207.5454545454545" as="geometry" />
        </mxCell>
        <mxCell id="XnjCDIcHjmMH2OgmWB8k-291" value="" style="group" parent="XnjCDIcHjmMH2OgmWB8k-312" vertex="1" connectable="0">
          <mxGeometry width="349.99999999999994" height="23" as="geometry" />
        </mxCell>
        <mxCell id="XnjCDIcHjmMH2OgmWB8k-211" value="&lt;font style=&quot;font-size: 10px;&quot; color=&quot;#ffffff&quot;&gt;Name&lt;/font&gt;" style="rounded=0;whiteSpace=wrap;html=1;fillColor=#000099;strokeColor=none;" parent="XnjCDIcHjmMH2OgmWB8k-291" vertex="1">
          <mxGeometry width="90.32258064516128" height="23" as="geometry" />
        </mxCell>
        <mxCell id="XnjCDIcHjmMH2OgmWB8k-216" value="&lt;font style=&quot;font-size: 10px;&quot;&gt;&lt;font style=&quot;font-size: 10px;&quot; color=&quot;#ffffff&quot;&gt;Dim&lt;/font&gt;&lt;sub style=&quot;border-color: var(--border-color); color: rgb(255, 255, 255);&quot;&gt;out&lt;/sub&gt;&lt;/font&gt;" style="rounded=0;whiteSpace=wrap;html=1;fillColor=#000099;strokeColor=none;" parent="XnjCDIcHjmMH2OgmWB8k-291" vertex="1">
          <mxGeometry x="90.32258064516128" width="79.03225806451611" height="23" as="geometry" />
        </mxCell>
        <mxCell id="XnjCDIcHjmMH2OgmWB8k-217" value="&lt;font style=&quot;font-size: 10px;&quot; color=&quot;#ffffff&quot;&gt;Dim&lt;sub&gt;out&lt;/sub&gt;&lt;/font&gt;" style="rounded=0;whiteSpace=wrap;html=1;fillColor=#000099;strokeColor=none;" parent="XnjCDIcHjmMH2OgmWB8k-291" vertex="1">
          <mxGeometry x="169.35483870967738" width="56.4516129032258" height="23" as="geometry" />
        </mxCell>
        <mxCell id="XnjCDIcHjmMH2OgmWB8k-218" value="&lt;font style=&quot;font-size: 10px;&quot; color=&quot;#ffffff&quot;&gt;Expression&lt;/font&gt;" style="rounded=0;whiteSpace=wrap;html=1;fillColor=#000099;strokeColor=none;" parent="XnjCDIcHjmMH2OgmWB8k-291" vertex="1">
          <mxGeometry x="225.8064516129032" width="124.19354838709675" height="23" as="geometry" />
        </mxCell>
        <mxCell id="XnjCDIcHjmMH2OgmWB8k-263" value="" style="group" parent="XnjCDIcHjmMH2OgmWB8k-312" vertex="1" connectable="0">
          <mxGeometry y="36.81818181818181" width="350" height="20.909090909090907" as="geometry" />
        </mxCell>
        <mxCell id="XnjCDIcHjmMH2OgmWB8k-219" value="&lt;font style=&quot;font-size: 10px;&quot; color=&quot;#000099&quot;&gt;Query&lt;/font&gt;" style="rounded=0;whiteSpace=wrap;html=1;fillColor=#dae8fc;strokeColor=none;fontColor=default;" parent="XnjCDIcHjmMH2OgmWB8k-263" vertex="1">
          <mxGeometry width="90.3225806451613" height="20.909090909090907" as="geometry" />
        </mxCell>
        <mxCell id="XnjCDIcHjmMH2OgmWB8k-223" value="&lt;font style=&quot;font-size: 10px;&quot; color=&quot;#000099&quot;&gt;$$L \times d_{E}$$&lt;/font&gt;" style="rounded=0;whiteSpace=wrap;html=1;fillColor=#A9C4EB;strokeColor=none;fontColor=default;" parent="XnjCDIcHjmMH2OgmWB8k-263" vertex="1">
          <mxGeometry x="90.32058823529412" width="84.67941176470589" height="20.909090909090907" as="geometry" />
        </mxCell>
        <mxCell id="XnjCDIcHjmMH2OgmWB8k-224" value="&lt;font style=&quot;font-size: 10px;&quot; color=&quot;#000099&quot;&gt;$$L \times d_k$$&lt;/font&gt;" style="rounded=0;whiteSpace=wrap;html=1;fillColor=#D4E1F5;strokeColor=none;fontColor=default;" parent="XnjCDIcHjmMH2OgmWB8k-263" vertex="1">
          <mxGeometry x="175" width="61.76470588235295" height="20.909090909090907" as="geometry" />
        </mxCell>
        <mxCell id="XnjCDIcHjmMH2OgmWB8k-226" value="&lt;font style=&quot;font-size: 10px;&quot; color=&quot;#000099&quot;&gt;$$Q = W_i^q \cdot X$$&lt;/font&gt;" style="rounded=0;whiteSpace=wrap;html=1;fillColor=#A9C4EB;strokeColor=none;fontColor=default;" parent="XnjCDIcHjmMH2OgmWB8k-263" vertex="1">
          <mxGeometry x="236.76470588235298" width="113.23529411764707" height="20.909090909090907" as="geometry" />
        </mxCell>
        <mxCell id="XnjCDIcHjmMH2OgmWB8k-267" value="" style="group" parent="XnjCDIcHjmMH2OgmWB8k-312" vertex="1" connectable="0">
          <mxGeometry y="115" width="350" height="41.81818181818181" as="geometry" />
        </mxCell>
        <mxCell id="XnjCDIcHjmMH2OgmWB8k-253" value="&lt;font style=&quot;font-size: 10px;&quot; color=&quot;#000099&quot;&gt;$$L \times L$$&lt;/font&gt;" style="rounded=0;whiteSpace=wrap;html=1;fillColor=#D4E1F5;strokeColor=none;fontColor=default;" parent="XnjCDIcHjmMH2OgmWB8k-267" vertex="1">
          <mxGeometry x="175" y="-8" width="61.76470588235295" height="41.81818181818181" as="geometry" />
        </mxCell>
        <mxCell id="XnjCDIcHjmMH2OgmWB8k-254" value="&lt;font style=&quot;font-size: 10px;&quot; color=&quot;#000099&quot;&gt;Softmax&lt;/font&gt;" style="rounded=0;whiteSpace=wrap;html=1;fillColor=#dae8fc;strokeColor=none;fontColor=default;" parent="XnjCDIcHjmMH2OgmWB8k-267" vertex="1">
          <mxGeometry y="-8" width="90.3225806451613" height="41.81818181818181" as="geometry" />
        </mxCell>
        <mxCell id="XnjCDIcHjmMH2OgmWB8k-255" value="&lt;font style=&quot;font-size: 10px;&quot; color=&quot;#000099&quot;&gt;$$Z_{i, j} = \frac{exp(S_{i, j})}{\sum_{i=1}^L exp(S_{i, j})}$$&lt;/font&gt;" style="rounded=0;whiteSpace=wrap;html=1;fillColor=#A9C4EB;strokeColor=none;fontColor=default;" parent="XnjCDIcHjmMH2OgmWB8k-267" vertex="1">
          <mxGeometry x="236.76470588235298" y="-8" width="113.23529411764707" height="41.81818181818181" as="geometry" />
        </mxCell>
        <mxCell id="XnjCDIcHjmMH2OgmWB8k-256" value="&lt;font style=&quot;font-size: 10px;&quot; color=&quot;#000099&quot;&gt;$$L \times L $$&lt;/font&gt;" style="rounded=0;whiteSpace=wrap;html=1;fillColor=#A9C4EB;strokeColor=none;fontColor=default;" parent="XnjCDIcHjmMH2OgmWB8k-267" vertex="1">
          <mxGeometry x="90.32058823529412" y="-8" width="84.67941176470589" height="41.81818181818181" as="geometry" />
        </mxCell>
        <mxCell id="XnjCDIcHjmMH2OgmWB8k-266" value="" style="group" parent="XnjCDIcHjmMH2OgmWB8k-267" vertex="1" connectable="0">
          <mxGeometry y="-39.36363636363636" width="350" height="31.363636363636363" as="geometry" />
        </mxCell>
        <mxCell id="XnjCDIcHjmMH2OgmWB8k-237" value="&lt;font style=&quot;font-size: 10px;&quot; color=&quot;#000099&quot;&gt;$$L \times L$$&lt;/font&gt;" style="rounded=0;whiteSpace=wrap;html=1;fillColor=#D4E1F5;strokeColor=none;fontColor=default;" parent="XnjCDIcHjmMH2OgmWB8k-266" vertex="1">
          <mxGeometry x="175" width="61.76470588235295" height="31.363636363636363" as="geometry" />
        </mxCell>
        <mxCell id="XnjCDIcHjmMH2OgmWB8k-240" value="&lt;font style=&quot;font-size: 10px;&quot; color=&quot;#000099&quot;&gt;Scaled dot-product&lt;/font&gt;" style="rounded=0;whiteSpace=wrap;html=1;fillColor=#dae8fc;strokeColor=none;fontColor=default;" parent="XnjCDIcHjmMH2OgmWB8k-266" vertex="1">
          <mxGeometry width="90.3225806451613" height="31.363636363636363" as="geometry" />
        </mxCell>
        <mxCell id="XnjCDIcHjmMH2OgmWB8k-246" value="&lt;font style=&quot;font-size: 10px;&quot; color=&quot;#000099&quot;&gt;$$S = \frac{Q \cdot K^T}{\sqrt{d_k}}$$&lt;/font&gt;" style="rounded=0;whiteSpace=wrap;html=1;fillColor=#A9C4EB;strokeColor=none;fontColor=default;" parent="XnjCDIcHjmMH2OgmWB8k-266" vertex="1">
          <mxGeometry x="236.76470588235298" width="113.23529411764707" height="31.363636363636363" as="geometry" />
        </mxCell>
        <mxCell id="XnjCDIcHjmMH2OgmWB8k-252" value="&lt;font style=&quot;font-size: 10px;&quot; color=&quot;#000099&quot;&gt;$$L \times d_{k}, L \times d_k $$&lt;/font&gt;" style="rounded=0;whiteSpace=wrap;html=1;fillColor=#A9C4EB;strokeColor=none;fontColor=default;" parent="XnjCDIcHjmMH2OgmWB8k-266" vertex="1">
          <mxGeometry x="90.32058823529412" width="84.67941176470589" height="31.363636363636363" as="geometry" />
        </mxCell>
        <mxCell id="XnjCDIcHjmMH2OgmWB8k-285" value="" style="group" parent="XnjCDIcHjmMH2OgmWB8k-312" vertex="1" connectable="0">
          <mxGeometry y="186.63636363636363" width="350" height="20.909090909090907" as="geometry" />
        </mxCell>
        <mxCell id="XnjCDIcHjmMH2OgmWB8k-286" value="&lt;font style=&quot;font-size: 10px;&quot; color=&quot;#000099&quot;&gt;Linear&lt;/font&gt;" style="rounded=0;whiteSpace=wrap;html=1;fillColor=#dae8fc;strokeColor=none;fontColor=default;" parent="XnjCDIcHjmMH2OgmWB8k-285" vertex="1">
          <mxGeometry width="90.3225806451613" height="20.909090909090907" as="geometry" />
        </mxCell>
        <mxCell id="XnjCDIcHjmMH2OgmWB8k-287" value="&lt;font style=&quot;font-size: 8px;&quot; color=&quot;#000099&quot;&gt;$$MHA = AC \cdot W^o$$&lt;/font&gt;" style="rounded=0;whiteSpace=wrap;html=1;fillColor=#A9C4EB;strokeColor=none;fontColor=default;" parent="XnjCDIcHjmMH2OgmWB8k-285" vertex="1">
          <mxGeometry x="236.76470588235298" width="113.23529411764707" height="20.909090909090907" as="geometry" />
        </mxCell>
        <mxCell id="XnjCDIcHjmMH2OgmWB8k-288" value="&lt;font style=&quot;font-size: 10px;&quot; color=&quot;#000099&quot;&gt;$$ L \times hd_v$$&lt;/font&gt;" style="rounded=0;whiteSpace=wrap;html=1;fillColor=#A9C4EB;strokeColor=none;fontColor=default;" parent="XnjCDIcHjmMH2OgmWB8k-285" vertex="1">
          <mxGeometry x="90.32058823529412" width="84.67941176470589" height="20.909090909090907" as="geometry" />
        </mxCell>
        <mxCell id="XnjCDIcHjmMH2OgmWB8k-289" value="&lt;font style=&quot;font-size: 10px;&quot; color=&quot;#000099&quot;&gt;$$L \times d_{model}$$&lt;/font&gt;" style="rounded=0;whiteSpace=wrap;html=1;fillColor=#D4E1F5;strokeColor=none;fontColor=default;" parent="XnjCDIcHjmMH2OgmWB8k-285" vertex="1">
          <mxGeometry x="175" width="61.76470588235295" height="20.909090909090907" as="geometry" />
        </mxCell>
        <mxCell id="XnjCDIcHjmMH2OgmWB8k-268" value="" style="group" parent="XnjCDIcHjmMH2OgmWB8k-312" vertex="1" connectable="0">
          <mxGeometry y="146.8181818181818" width="350" height="20.909090909090907" as="geometry" />
        </mxCell>
        <mxCell id="XnjCDIcHjmMH2OgmWB8k-257" value="" style="rounded=0;whiteSpace=wrap;html=1;fillColor=#dae8fc;strokeColor=none;fontColor=default;" parent="XnjCDIcHjmMH2OgmWB8k-268" vertex="1">
          <mxGeometry width="90.3225806451613" height="20.909090909090907" as="geometry" />
        </mxCell>
        <mxCell id="XnjCDIcHjmMH2OgmWB8k-259" value="&lt;font style=&quot;font-size: 10px;&quot; color=&quot;#000099&quot;&gt;$$L \times L, L \times d_v $$&lt;/font&gt;" style="rounded=0;whiteSpace=wrap;html=1;fillColor=#A9C4EB;strokeColor=none;fontColor=default;" parent="XnjCDIcHjmMH2OgmWB8k-268" vertex="1">
          <mxGeometry x="90.32058823529412" width="84.67941176470589" height="20.909090909090907" as="geometry" />
        </mxCell>
        <mxCell id="XnjCDIcHjmMH2OgmWB8k-260" value="&lt;font style=&quot;font-size: 10px;&quot; color=&quot;#000099&quot;&gt;$$L \times d_v$$&lt;/font&gt;" style="rounded=0;whiteSpace=wrap;html=1;fillColor=#D4E1F5;strokeColor=none;fontColor=default;" parent="XnjCDIcHjmMH2OgmWB8k-268" vertex="1">
          <mxGeometry x="175" width="61.76470588235295" height="20.909090909090907" as="geometry" />
        </mxCell>
        <mxCell id="XnjCDIcHjmMH2OgmWB8k-262" value="&lt;font style=&quot;font-size: 8px;&quot; color=&quot;#000099&quot;&gt;$$A = Z \cdot V$$&lt;/font&gt;" style="rounded=0;whiteSpace=wrap;html=1;fillColor=#A9C4EB;strokeColor=none;fontColor=default;" parent="XnjCDIcHjmMH2OgmWB8k-268" vertex="1">
          <mxGeometry x="236.76470588235298" width="113.23529411764707" height="20.909090909090907" as="geometry" />
        </mxCell>
        <mxCell id="XnjCDIcHjmMH2OgmWB8k-310" value="" style="verticalLabelPosition=bottom;verticalAlign=top;html=1;shape=mxgraph.flowchart.summing_function;rotation=45;fillColor=none;" parent="XnjCDIcHjmMH2OgmWB8k-268" vertex="1">
          <mxGeometry x="40.15999999999997" y="5.451818181818169" width="10" height="10" as="geometry" />
        </mxCell>
        <mxCell id="XnjCDIcHjmMH2OgmWB8k-265" value="" style="group" parent="XnjCDIcHjmMH2OgmWB8k-312" vertex="1" connectable="0">
          <mxGeometry y="54.72727272727275" width="350" height="20.909090909090907" as="geometry" />
        </mxCell>
        <mxCell id="XnjCDIcHjmMH2OgmWB8k-231" value="&lt;font style=&quot;font-size: 10px;&quot; color=&quot;#000099&quot;&gt;Value&lt;/font&gt;" style="rounded=0;whiteSpace=wrap;html=1;fillColor=#dae8fc;strokeColor=none;fontColor=default;" parent="XnjCDIcHjmMH2OgmWB8k-265" vertex="1">
          <mxGeometry width="90.3225806451613" height="20.909090909090907" as="geometry" />
        </mxCell>
        <mxCell id="XnjCDIcHjmMH2OgmWB8k-234" value="&lt;font style=&quot;font-size: 10px;&quot; color=&quot;#000099&quot;&gt;$$V = W_i^v \cdot X$$&lt;/font&gt;" style="rounded=0;whiteSpace=wrap;html=1;fillColor=#A9C4EB;strokeColor=none;fontColor=default;" parent="XnjCDIcHjmMH2OgmWB8k-265" vertex="1">
          <mxGeometry x="236.76470588235298" width="113.23529411764707" height="20.909090909090907" as="geometry" />
        </mxCell>
        <mxCell id="XnjCDIcHjmMH2OgmWB8k-248" value="&lt;font style=&quot;font-size: 10px;&quot; color=&quot;#000099&quot;&gt;$$L \times d_{E}$$&lt;/font&gt;" style="rounded=0;whiteSpace=wrap;html=1;fillColor=#A9C4EB;strokeColor=none;fontColor=default;" parent="XnjCDIcHjmMH2OgmWB8k-265" vertex="1">
          <mxGeometry x="90.32058823529412" width="84.67941176470589" height="20.909090909090907" as="geometry" />
        </mxCell>
        <mxCell id="XnjCDIcHjmMH2OgmWB8k-250" value="&lt;font style=&quot;font-size: 10px;&quot; color=&quot;#000099&quot;&gt;$$L \times d_v$$&lt;/font&gt;" style="rounded=0;whiteSpace=wrap;html=1;fillColor=#D4E1F5;strokeColor=none;fontColor=default;" parent="XnjCDIcHjmMH2OgmWB8k-265" vertex="1">
          <mxGeometry x="175" width="61.76470588235295" height="20.909090909090907" as="geometry" />
        </mxCell>
        <mxCell id="XnjCDIcHjmMH2OgmWB8k-280" value="" style="group;imageHeight=20;" parent="XnjCDIcHjmMH2OgmWB8k-312" vertex="1" connectable="0">
          <mxGeometry y="165.72727272727275" width="349.99999999999994" height="23" as="geometry" />
        </mxCell>
        <mxCell id="XnjCDIcHjmMH2OgmWB8k-281" value="&lt;font style=&quot;font-size: 10px;&quot; color=&quot;#000099&quot;&gt;Concat&lt;/font&gt;" style="rounded=0;whiteSpace=wrap;html=1;fillColor=#dae8fc;strokeColor=none;fontColor=default;" parent="XnjCDIcHjmMH2OgmWB8k-280" vertex="1">
          <mxGeometry width="90.32258064516128" height="23" as="geometry" />
        </mxCell>
        <mxCell id="XnjCDIcHjmMH2OgmWB8k-282" value="&lt;font style=&quot;font-size: 8px;&quot; color=&quot;#000099&quot;&gt;$$AC =(A_1, A_2, ..., A_h)$$&lt;/font&gt;" style="rounded=0;whiteSpace=wrap;html=1;fillColor=#A9C4EB;strokeColor=none;fontColor=default;" parent="XnjCDIcHjmMH2OgmWB8k-280" vertex="1">
          <mxGeometry x="236.76470588235293" width="113.23529411764704" height="23" as="geometry" />
        </mxCell>
        <mxCell id="XnjCDIcHjmMH2OgmWB8k-283" value="&lt;font style=&quot;font-size: 10px;&quot; color=&quot;#000099&quot;&gt;$$(L \times d_{model}, ...)$$&lt;/font&gt;" style="rounded=0;whiteSpace=wrap;html=1;fillColor=#A9C4EB;strokeColor=none;fontColor=default;" parent="XnjCDIcHjmMH2OgmWB8k-280" vertex="1">
          <mxGeometry x="90.32058823529411" width="84.67941176470588" height="23" as="geometry" />
        </mxCell>
        <mxCell id="XnjCDIcHjmMH2OgmWB8k-284" value="&lt;font style=&quot;font-size: 10px;&quot; color=&quot;#000099&quot;&gt;$$L \times hd_v$$&lt;/font&gt;" style="rounded=0;whiteSpace=wrap;html=1;fillColor=#D4E1F5;strokeColor=none;fontColor=default;" parent="XnjCDIcHjmMH2OgmWB8k-280" vertex="1">
          <mxGeometry x="174.99999999999997" width="61.764705882352935" height="23" as="geometry" />
        </mxCell>
        <mxCell id="XnjCDIcHjmMH2OgmWB8k-150" value="" style="group" parent="1" vertex="1" connectable="0">
          <mxGeometry x="95" y="260.5533333333333" width="220" height="133.88666666666668" as="geometry" />
        </mxCell>
        <mxCell id="yxrUOqGNEksjiK6V0Ne--4" value="" style="endArrow=classic;html=1;rounded=0;entryX=0;entryY=0.5;entryDx=0;entryDy=0;dashed=1;" parent="XnjCDIcHjmMH2OgmWB8k-150" edge="1">
          <mxGeometry width="50" height="50" relative="1" as="geometry">
            <mxPoint x="28.88857142857143" y="76.1088888888889" as="sourcePoint" />
            <mxPoint x="72.22142857142858" y="76.1088888888889" as="targetPoint" />
          </mxGeometry>
        </mxCell>
        <mxCell id="yxrUOqGNEksjiK6V0Ne--3" value="" style="endArrow=classic;html=1;rounded=0;entryX=0;entryY=0.5;entryDx=0;entryDy=0;dashed=1;" parent="XnjCDIcHjmMH2OgmWB8k-150" edge="1">
          <mxGeometry width="50" height="50" relative="1" as="geometry">
            <mxPoint x="21.666428571428572" y="68.88666666666667" as="sourcePoint" />
            <mxPoint x="64.9992857142857" y="68.88666666666667" as="targetPoint" />
          </mxGeometry>
        </mxCell>
        <mxCell id="yxrUOqGNEksjiK6V0Ne--2" value="" style="rounded=1;whiteSpace=wrap;html=1;dashed=1;" parent="XnjCDIcHjmMH2OgmWB8k-150" vertex="1">
          <mxGeometry x="57.77714285714286" y="18.33111111111112" width="101.11" height="115.55555555555556" as="geometry" />
        </mxCell>
        <mxCell id="yxrUOqGNEksjiK6V0Ne--24" style="edgeStyle=orthogonalEdgeStyle;rounded=0;orthogonalLoop=1;jettySize=auto;html=1;exitX=1;exitY=0.5;exitDx=0;exitDy=0;endArrow=none;endFill=0;dashed=1;entryX=0.5;entryY=1;entryDx=0;entryDy=0;" parent="XnjCDIcHjmMH2OgmWB8k-150" target="XnjCDIcHjmMH2OgmWB8k-108" edge="1">
          <mxGeometry relative="1" as="geometry">
            <mxPoint x="173.00142857142856" y="73.42025839793281" as="targetPoint" />
            <mxPoint x="151.335" y="73.38666666666656" as="sourcePoint" />
          </mxGeometry>
        </mxCell>
        <mxCell id="yxrUOqGNEksjiK6V0Ne--1" value="" style="rounded=1;whiteSpace=wrap;html=1;dashed=1;" parent="XnjCDIcHjmMH2OgmWB8k-150" vertex="1">
          <mxGeometry x="50.555" y="11.108888888888895" width="101.11" height="115.55555555555556" as="geometry" />
        </mxCell>
        <mxCell id="6m08DfvSZnTfwk1tze_v-6" value="" style="rounded=1;whiteSpace=wrap;html=1;" parent="XnjCDIcHjmMH2OgmWB8k-150" vertex="1">
          <mxGeometry x="43.332857142857144" y="3.886666666666674" width="101.11" height="115.55555555555556" as="geometry" />
        </mxCell>
        <mxCell id="6m08DfvSZnTfwk1tze_v-13" value="" style="rounded=1;whiteSpace=wrap;html=1;fillColor=#dae8fc;strokeColor=none;" parent="XnjCDIcHjmMH2OgmWB8k-150" vertex="1">
          <mxGeometry x="57.77714285714286" y="11.108888888888895" width="14.444285714285716" height="28.88888888888889" as="geometry" />
        </mxCell>
        <mxCell id="6m08DfvSZnTfwk1tze_v-14" value="" style="rounded=1;whiteSpace=wrap;html=1;fillColor=#dae8fc;strokeColor=none;" parent="XnjCDIcHjmMH2OgmWB8k-150" vertex="1">
          <mxGeometry x="57.77714285714286" y="47.22000000000001" width="14.444285714285716" height="28.88888888888889" as="geometry" />
        </mxCell>
        <mxCell id="6m08DfvSZnTfwk1tze_v-15" value="" style="rounded=1;whiteSpace=wrap;html=1;fillColor=#dae8fc;strokeColor=none;" parent="XnjCDIcHjmMH2OgmWB8k-150" vertex="1">
          <mxGeometry x="57.77714285714286" y="83.33111111111111" width="14.444285714285716" height="28.88888888888889" as="geometry" />
        </mxCell>
        <mxCell id="6m08DfvSZnTfwk1tze_v-23" value="" style="endArrow=classicThin;html=1;rounded=0;entryX=0;entryY=0.5;entryDx=0;entryDy=0;endSize=1;endFill=1;" parent="XnjCDIcHjmMH2OgmWB8k-150" target="6m08DfvSZnTfwk1tze_v-14" edge="1">
          <mxGeometry width="50" height="50" relative="1" as="geometry">
            <mxPoint x="14.444285714285716" y="61.664444444444456" as="sourcePoint" />
            <mxPoint x="7.222142857142858" y="76.1088888888889" as="targetPoint" />
          </mxGeometry>
        </mxCell>
        <mxCell id="6m08DfvSZnTfwk1tze_v-24" value="" style="endArrow=classicThin;html=1;rounded=0;entryX=0;entryY=0.5;entryDx=0;entryDy=0;endFill=1;endSize=2;" parent="XnjCDIcHjmMH2OgmWB8k-150" target="6m08DfvSZnTfwk1tze_v-13" edge="1">
          <mxGeometry width="50" height="50" relative="1" as="geometry">
            <mxPoint x="36.11071428571429" y="61.664444444444456" as="sourcePoint" />
            <mxPoint x="36.11071428571429" y="18.33111111111112" as="targetPoint" />
            <Array as="points">
              <mxPoint x="36.11071428571429" y="25.55333333333334" />
            </Array>
          </mxGeometry>
        </mxCell>
        <mxCell id="6m08DfvSZnTfwk1tze_v-26" value="" style="endArrow=classicThin;html=1;rounded=0;entryX=0;entryY=0.5;entryDx=0;entryDy=0;endSize=1;endFill=1;" parent="XnjCDIcHjmMH2OgmWB8k-150" target="6m08DfvSZnTfwk1tze_v-15" edge="1">
          <mxGeometry width="50" height="50" relative="1" as="geometry">
            <mxPoint x="36.11071428571429" y="61.664444444444456" as="sourcePoint" />
            <mxPoint x="57.77714285714286" y="25.55333333333334" as="targetPoint" />
            <Array as="points">
              <mxPoint x="36.11071428571429" y="97.77555555555557" />
            </Array>
          </mxGeometry>
        </mxCell>
        <mxCell id="yxrUOqGNEksjiK6V0Ne--5" value="" style="endArrow=none;html=1;rounded=0;" parent="XnjCDIcHjmMH2OgmWB8k-150" edge="1">
          <mxGeometry width="50" height="50" relative="1" as="geometry">
            <mxPoint x="21.666428571428572" y="68.88666666666667" as="sourcePoint" />
            <mxPoint x="14.444285714285716" y="61.664444444444456" as="targetPoint" />
          </mxGeometry>
        </mxCell>
        <mxCell id="yxrUOqGNEksjiK6V0Ne--7" value="" style="endArrow=none;html=1;rounded=0;dashed=1;" parent="XnjCDIcHjmMH2OgmWB8k-150" edge="1">
          <mxGeometry width="50" height="50" relative="1" as="geometry">
            <mxPoint x="28.88857142857143" y="76.1088888888889" as="sourcePoint" />
            <mxPoint x="21.666428571428572" y="68.88666666666667" as="targetPoint" />
          </mxGeometry>
        </mxCell>
        <mxCell id="yxrUOqGNEksjiK6V0Ne--8" value="&lt;font style=&quot;font-size: 10px;&quot;&gt;Key&lt;/font&gt;" style="text;html=1;align=center;verticalAlign=middle;resizable=0;points=[];autosize=1;strokeColor=none;fillColor=none;rotation=90;" parent="XnjCDIcHjmMH2OgmWB8k-150" vertex="1">
          <mxGeometry x="46.005" y="46.11111111111113" width="40" height="30" as="geometry" />
        </mxCell>
        <mxCell id="yxrUOqGNEksjiK6V0Ne--9" value="&lt;font style=&quot;font-size: 10px;&quot;&gt;Query&lt;/font&gt;" style="text;html=1;align=center;verticalAlign=middle;resizable=0;points=[];autosize=1;strokeColor=none;fillColor=none;rotation=90;" parent="XnjCDIcHjmMH2OgmWB8k-150" vertex="1">
          <mxGeometry x="41.002857142857145" y="10.000000000000007" width="50" height="30" as="geometry" />
        </mxCell>
        <mxCell id="yxrUOqGNEksjiK6V0Ne--10" value="&lt;font style=&quot;font-size: 10px;&quot;&gt;Value&lt;/font&gt;" style="text;html=1;align=center;verticalAlign=middle;resizable=0;points=[];autosize=1;strokeColor=none;fillColor=none;rotation=90;" parent="XnjCDIcHjmMH2OgmWB8k-150" vertex="1">
          <mxGeometry x="41.003928571428574" y="82.22222222222223" width="50" height="30" as="geometry" />
        </mxCell>
        <mxCell id="yxrUOqGNEksjiK6V0Ne--11" value="" style="endArrow=classicThin;html=1;rounded=0;entryX=0;entryY=0.25;entryDx=0;entryDy=0;endFill=1;endSize=1;" parent="XnjCDIcHjmMH2OgmWB8k-150" target="XnjCDIcHjmMH2OgmWB8k-173" edge="1">
          <mxGeometry width="50" height="50" relative="1" as="geometry">
            <mxPoint x="72.22142857142858" y="25.430555555555554" as="sourcePoint" />
            <mxPoint x="83.0546627795959" y="39.98302237225755" as="targetPoint" />
            <Array as="points">
              <mxPoint x="75" y="25.49666666666667" />
            </Array>
          </mxGeometry>
        </mxCell>
        <mxCell id="yxrUOqGNEksjiK6V0Ne--14" value="" style="endArrow=classicThin;html=1;rounded=0;entryX=0;entryY=0.75;entryDx=0;entryDy=0;exitX=1;exitY=0.5;exitDx=0;exitDy=0;endFill=1;startSize=5;endSize=1;" parent="XnjCDIcHjmMH2OgmWB8k-150" source="6m08DfvSZnTfwk1tze_v-14" target="XnjCDIcHjmMH2OgmWB8k-173" edge="1">
          <mxGeometry width="50" height="50" relative="1" as="geometry">
            <mxPoint x="-21.666428571428572" y="18.33111111111112" as="sourcePoint" />
            <mxPoint x="83.05462293468997" y="47.23475540552022" as="targetPoint" />
            <Array as="points">
              <mxPoint x="75" y="61.49666666666667" />
            </Array>
          </mxGeometry>
        </mxCell>
        <mxCell id="yxrUOqGNEksjiK6V0Ne--16" value="" style="rounded=1;whiteSpace=wrap;html=1;fillColor=#dae8fc;strokeColor=none;" parent="XnjCDIcHjmMH2OgmWB8k-150" vertex="1">
          <mxGeometry x="114.93892857142858" y="21.39222222222223" width="14.444285714285716" height="43.333333333333336" as="geometry" />
        </mxCell>
        <mxCell id="yxrUOqGNEksjiK6V0Ne--20" value="" style="verticalLabelPosition=bottom;verticalAlign=top;html=1;shape=mxgraph.flowchart.summing_function;rotation=45;" parent="XnjCDIcHjmMH2OgmWB8k-150" vertex="1">
          <mxGeometry x="132.38750000000002" y="58.05333333333334" width="7.222142857142858" height="7.222222222222222" as="geometry" />
        </mxCell>
        <mxCell id="yxrUOqGNEksjiK6V0Ne--21" style="edgeStyle=orthogonalEdgeStyle;rounded=0;orthogonalLoop=1;jettySize=auto;html=1;exitX=1;exitY=0.5;exitDx=0;exitDy=0;entryX=0.855;entryY=0.855;entryDx=0;entryDy=0;entryPerimeter=0;endSize=1;endArrow=classicThin;endFill=1;" parent="XnjCDIcHjmMH2OgmWB8k-150" source="6m08DfvSZnTfwk1tze_v-15" target="yxrUOqGNEksjiK6V0Ne--20" edge="1">
          <mxGeometry relative="1" as="geometry" />
        </mxCell>
        <mxCell id="yxrUOqGNEksjiK6V0Ne--25" value="" style="endArrow=none;html=1;rounded=0;exitX=0.997;exitY=0.572;exitDx=0;exitDy=0;dashed=1;entryX=0.75;entryY=1;entryDx=0;entryDy=0;exitPerimeter=0;" parent="XnjCDIcHjmMH2OgmWB8k-150" source="yxrUOqGNEksjiK6V0Ne--2" target="XnjCDIcHjmMH2OgmWB8k-108" edge="1">
          <mxGeometry width="50" height="50" relative="1" as="geometry">
            <mxPoint x="158.88714285714286" y="83.32888888888895" as="sourcePoint" />
            <mxPoint x="180.55357142857144" y="83.3288888888889" as="targetPoint" />
            <Array as="points" />
          </mxGeometry>
        </mxCell>
        <mxCell id="yxrUOqGNEksjiK6V0Ne--22" style="edgeStyle=orthogonalEdgeStyle;rounded=0;orthogonalLoop=1;jettySize=auto;html=1;exitX=1;exitY=0.5;exitDx=0;exitDy=0;entryX=0.145;entryY=0.145;entryDx=0;entryDy=0;entryPerimeter=0;endSize=1;endArrow=classicThin;endFill=1;" parent="XnjCDIcHjmMH2OgmWB8k-150" source="yxrUOqGNEksjiK6V0Ne--16" target="yxrUOqGNEksjiK6V0Ne--20" edge="1">
          <mxGeometry relative="1" as="geometry" />
        </mxCell>
        <mxCell id="XnjCDIcHjmMH2OgmWB8k-108" value="&lt;font style=&quot;font-size: 10px;&quot;&gt;Concat&lt;/font&gt;" style="rounded=1;whiteSpace=wrap;html=1;fillColor=#dae8fc;strokeColor=none;rotation=90;" parent="XnjCDIcHjmMH2OgmWB8k-150" vertex="1">
          <mxGeometry x="151.67" y="65.27666666666666" width="45" height="15.61" as="geometry" />
        </mxCell>
        <mxCell id="XnjCDIcHjmMH2OgmWB8k-114" style="edgeStyle=orthogonalEdgeStyle;rounded=0;orthogonalLoop=1;jettySize=auto;html=1;exitX=0.855;exitY=0.145;exitDx=0;exitDy=0;endArrow=none;endFill=0;entryX=0.25;entryY=1;entryDx=0;entryDy=0;exitPerimeter=0;" parent="XnjCDIcHjmMH2OgmWB8k-150" source="yxrUOqGNEksjiK6V0Ne--20" target="XnjCDIcHjmMH2OgmWB8k-108" edge="1">
          <mxGeometry relative="1" as="geometry">
            <mxPoint x="170" y="61.694358974358934" as="targetPoint" />
          </mxGeometry>
        </mxCell>
        <mxCell id="XnjCDIcHjmMH2OgmWB8k-149" style="edgeStyle=orthogonalEdgeStyle;rounded=0;orthogonalLoop=1;jettySize=auto;html=1;exitX=0.5;exitY=0;exitDx=0;exitDy=0;endSize=1;endArrow=classicThin;endFill=1;" parent="XnjCDIcHjmMH2OgmWB8k-150" source="XnjCDIcHjmMH2OgmWB8k-146" edge="1">
          <mxGeometry relative="1" as="geometry">
            <mxPoint x="220" y="73.08206896551725" as="targetPoint" />
          </mxGeometry>
        </mxCell>
        <mxCell id="XnjCDIcHjmMH2OgmWB8k-146" value="&lt;font style=&quot;font-size: 10px;&quot;&gt;Linear&lt;/font&gt;" style="rounded=1;whiteSpace=wrap;html=1;fillColor=#dae8fc;strokeColor=none;rotation=90;" parent="XnjCDIcHjmMH2OgmWB8k-150" vertex="1">
          <mxGeometry x="178" y="65.27666666666666" width="45" height="15.61" as="geometry" />
        </mxCell>
        <mxCell id="XnjCDIcHjmMH2OgmWB8k-147" style="edgeStyle=orthogonalEdgeStyle;rounded=0;orthogonalLoop=1;jettySize=auto;html=1;exitX=0.5;exitY=0;exitDx=0;exitDy=0;entryX=0.5;entryY=1;entryDx=0;entryDy=0;endSize=1;endArrow=classicThin;endFill=1;" parent="XnjCDIcHjmMH2OgmWB8k-150" source="XnjCDIcHjmMH2OgmWB8k-108" target="XnjCDIcHjmMH2OgmWB8k-146" edge="1">
          <mxGeometry relative="1" as="geometry" />
        </mxCell>
        <mxCell id="XnjCDIcHjmMH2OgmWB8k-174" style="edgeStyle=orthogonalEdgeStyle;rounded=0;orthogonalLoop=1;jettySize=auto;html=1;exitX=1;exitY=0.5;exitDx=0;exitDy=0;entryX=0;entryY=0.5;entryDx=0;entryDy=0;endSize=1;endArrow=classicThin;endFill=1;" parent="XnjCDIcHjmMH2OgmWB8k-150" source="XnjCDIcHjmMH2OgmWB8k-173" target="yxrUOqGNEksjiK6V0Ne--16" edge="1">
          <mxGeometry relative="1" as="geometry" />
        </mxCell>
        <mxCell id="XnjCDIcHjmMH2OgmWB8k-173" value="" style="rounded=1;whiteSpace=wrap;html=1;fillColor=#dae8fc;strokeColor=none;" parent="XnjCDIcHjmMH2OgmWB8k-150" vertex="1">
          <mxGeometry x="84" y="13.06" width="21.11" height="60" as="geometry" />
        </mxCell>
        <mxCell id="XnjCDIcHjmMH2OgmWB8k-172" value="&lt;p style=&quot;line-height: 70%;&quot;&gt;&lt;font style=&quot;font-size: 10px;&quot;&gt;Scale &lt;br&gt;Dot-Product&lt;br&gt;&lt;/font&gt;&lt;/p&gt;" style="text;html=1;align=center;verticalAlign=middle;resizable=0;points=[];autosize=1;strokeColor=none;fillColor=none;rotation=90;" parent="XnjCDIcHjmMH2OgmWB8k-150" vertex="1">
          <mxGeometry x="56.77357142857146" y="11.105555555555412" width="80" height="60" as="geometry" />
        </mxCell>
        <mxCell id="yxrUOqGNEksjiK6V0Ne--6" value="" style="endArrow=none;html=1;rounded=0;" parent="XnjCDIcHjmMH2OgmWB8k-150" edge="1">
          <mxGeometry width="50" height="50" relative="1" as="geometry">
            <mxPoint x="12" y="68.82666666666671" as="sourcePoint" />
            <mxPoint x="22" y="68.82666666666671" as="targetPoint" />
          </mxGeometry>
        </mxCell>
        <mxCell id="yxrUOqGNEksjiK6V0Ne--17" value="&lt;font style=&quot;font-size: 10px;&quot;&gt;Softmax&lt;/font&gt;" style="text;html=1;align=center;verticalAlign=middle;resizable=0;points=[];autosize=1;strokeColor=none;fillColor=none;rotation=90;" parent="XnjCDIcHjmMH2OgmWB8k-150" vertex="1">
          <mxGeometry x="94.16357142857143" y="28.055555555555657" width="60" height="30" as="geometry" />
        </mxCell>
        <mxCell id="XnjCDIcHjmMH2OgmWB8k-300" value="$$X$$" style="text;html=1;align=center;verticalAlign=middle;resizable=0;points=[];autosize=1;strokeColor=none;fillColor=none;" parent="1" vertex="1">
          <mxGeometry x="67" y="314.78" width="60" height="30" as="geometry" />
        </mxCell>
        <mxCell id="XnjCDIcHjmMH2OgmWB8k-304" value="" style="group" parent="1" vertex="1" connectable="0">
          <mxGeometry x="103.67" y="398.25" width="188" height="110" as="geometry" />
        </mxCell>
        <mxCell id="XnjCDIcHjmMH2OgmWB8k-302" value="" style="group" parent="XnjCDIcHjmMH2OgmWB8k-304" vertex="1" connectable="0">
          <mxGeometry width="188" height="110" as="geometry" />
        </mxCell>
        <mxCell id="XnjCDIcHjmMH2OgmWB8k-296" value="&lt;p style=&quot;line-height: 0%;&quot;&gt;&lt;font style=&quot;font-size: 8px;&quot;&gt;$$d_{E}$$&amp;nbsp;&amp;nbsp;&lt;/font&gt;&lt;/p&gt;" style="text;html=1;align=left;verticalAlign=middle;resizable=0;points=[];autosize=1;strokeColor=none;fillColor=none;" parent="XnjCDIcHjmMH2OgmWB8k-302" vertex="1">
          <mxGeometry x="20" width="70" height="40" as="geometry" />
        </mxCell>
        <mxCell id="XnjCDIcHjmMH2OgmWB8k-298" value="&lt;font style=&quot;font-size: 8px;&quot;&gt;$$d_k, d_v$$&lt;/font&gt;" style="text;html=1;align=left;verticalAlign=middle;resizable=0;points=[];autosize=1;strokeColor=none;fillColor=none;" parent="XnjCDIcHjmMH2OgmWB8k-302" vertex="1">
          <mxGeometry x="20" y="20" width="70" height="30" as="geometry" />
        </mxCell>
        <mxCell id="XnjCDIcHjmMH2OgmWB8k-299" value="&lt;font style=&quot;font-size: 8px;&quot;&gt;$$L$$&lt;/font&gt;" style="text;html=1;align=left;verticalAlign=middle;resizable=0;points=[];autosize=1;strokeColor=none;fillColor=none;" parent="XnjCDIcHjmMH2OgmWB8k-302" vertex="1">
          <mxGeometry x="20" y="40" width="50" height="30" as="geometry" />
        </mxCell>
        <mxCell id="XnjCDIcHjmMH2OgmWB8k-301" value="&lt;font style=&quot;font-size: 8px;&quot;&gt;$$W_i^q, W_i^k, W_i^v$$&lt;/font&gt;" style="text;html=1;align=left;verticalAlign=middle;resizable=0;points=[];autosize=1;strokeColor=none;fillColor=none;" parent="XnjCDIcHjmMH2OgmWB8k-302" vertex="1">
          <mxGeometry x="20" y="60" width="120" height="30" as="geometry" />
        </mxCell>
        <mxCell id="XnjCDIcHjmMH2OgmWB8k-303" value="&lt;font style=&quot;font-size: 8px;&quot;&gt;$$W^o$$&lt;/font&gt;" style="text;html=1;align=left;verticalAlign=middle;resizable=0;points=[];autosize=1;strokeColor=none;fillColor=none;" parent="XnjCDIcHjmMH2OgmWB8k-302" vertex="1">
          <mxGeometry x="20" y="80" width="60" height="30" as="geometry" />
        </mxCell>
      </root>
    </mxGraphModel>
  </diagram>
</mxfile>
